<svg version="1.1" id="Layer_1" xmlns="http://www.w3.org/2000/svg" xmlns:xlink="http://www.w3.org/1999/xlink" x="0px" y="0px"
	 width="100%" viewBox="0 0 200 200" enable-background="new 0 0 200 200" xml:space="preserve">
<path fill="#00C0B5" opacity="1.000000" stroke="none" 
	d="
M131.000000,201.000000 
	C87.333336,201.000000 44.166672,201.000000 1.000006,201.000000 
	C1.000004,134.333344 1.000004,67.666679 1.000002,1.000015 
	C67.666656,1.000010 134.333313,1.000010 200.999969,1.000005 
	C200.999985,67.666649 200.999985,134.333298 201.000000,200.999969 
	C177.833328,201.000000 154.666672,201.000000 131.000000,201.000000 
M157.464554,106.993683 
	C134.451477,120.417656 111.372894,133.731750 88.491104,147.375900 
	C84.763100,149.598877 82.243752,149.358261 78.681374,147.259598 
	C60.749409,136.695602 42.699390,126.327263 24.545473,116.149490 
	C21.550909,114.470612 18.907442,110.333282 14.399529,113.237823 
	C10.091926,116.013298 12.483050,120.226570 12.241377,123.743729 
	C11.918622,128.440887 17.627708,131.951584 21.379734,129.269363 
	C25.860046,126.066498 29.481960,126.726387 33.445641,129.797104 
	C35.141090,131.110596 37.080105,132.201080 39.058136,133.039902 
	C43.517815,134.931137 45.656349,137.727783 45.068398,142.952957 
	C44.576561,147.323944 50.390907,150.911697 53.872288,148.404602 
	C58.472740,145.091599 62.232571,145.755783 66.368340,148.898087 
	C68.473503,150.497559 70.843872,151.839493 73.266800,152.906113 
	C76.302597,154.242477 77.357574,156.235535 77.139511,159.534302 
	C77.012161,161.460785 77.362663,164.383179 78.601738,165.216385 
	C80.610870,166.567413 84.004677,167.710617 85.956398,166.893478 
	C89.537735,165.394043 94.603348,164.498108 93.911339,158.307602 
	C93.703613,156.449417 94.810501,153.487717 96.281654,152.553329 
	C105.963844,146.403839 115.910309,140.670441 124.157997,135.761185 
	C128.978287,136.986206 132.631393,139.104324 135.652420,138.422363 
	C141.103470,137.191864 144.902435,133.591110 143.623291,126.847649 
	C143.367966,125.501617 144.510101,123.131226 145.718185,122.388397 
	C154.477951,117.002213 163.419922,111.912415 172.182587,106.799797 
	C178.916199,112.499146 178.715454,112.074219 185.884598,108.687454 
	C191.216705,106.168526 189.762985,101.993629 189.829575,98.098541 
	C189.934311,91.971558 186.574524,90.012810 181.392242,93.024033 
	C173.617706,97.541512 165.866257,102.098686 157.464554,106.993683 
M94.887222,136.353821 
	C103.350266,133.534973 106.664139,127.752052 104.963760,119.004150 
	C104.745796,117.882797 104.791199,116.661339 104.960083,115.522667 
	C105.514534,111.784286 104.165871,109.586937 100.655396,107.731010 
	C91.266113,102.767120 81.955040,97.592064 73.005051,91.885826 
	C68.161102,88.797478 64.700020,89.728287 59.619740,91.741600 
	C47.560879,96.520538 43.562710,104.682678 46.057640,116.727562 
	C46.456825,118.654716 47.656509,121.027412 49.225922,121.998367 
	C57.412357,127.063087 66.183662,131.241516 74.077614,136.702393 
	C81.203949,141.632278 87.512848,142.891144 94.887222,136.353821 
M175.539352,87.628853 
	C175.409729,81.504333 177.165100,74.375641 174.594986,69.551239 
	C172.249191,65.147888 165.218246,63.239574 160.249863,60.235451 
	C159.680786,59.891361 159.044235,59.638172 158.528931,59.229420 
	C156.229477,57.405460 154.159668,57.810181 151.711838,59.259480 
	C141.408661,65.359703 130.987076,71.259804 120.617508,77.248154 
	C117.699364,78.933350 114.810776,80.669701 111.258041,82.766579 
	C117.516922,86.398468 123.090935,89.357269 128.320175,92.834564 
	C129.898239,93.883926 131.278564,96.310524 131.433212,98.213226 
	C131.856400,103.419769 131.578979,108.683258 131.578979,114.832008 
	C146.504959,106.196701 160.451385,98.138443 174.370575,90.033386 
	C174.871490,89.741707 175.103867,88.988831 175.539352,87.628853 
M72.248795,64.281036 
	C69.475327,63.460144 67.649010,59.875599 63.795532,62.159698 
	C50.777958,69.875710 37.584682,77.295090 24.551647,84.985611 
	C23.402267,85.663841 22.320473,87.459198 22.252098,88.789383 
	C21.987480,93.937561 22.104046,99.108170 22.186827,104.268684 
	C22.201303,105.171356 22.460394,106.523056 23.073742,106.893242 
	C29.360994,110.687920 35.744709,114.322784 42.724773,118.363022 
	C42.724773,112.530365 42.969193,107.856155 42.648411,103.221069 
	C42.385818,99.426735 43.593472,97.253342 47.047886,95.361221 
	C58.713741,88.971329 70.158600,82.177666 81.678925,75.522758 
	C83.156120,74.669426 84.580063,73.723892 86.480354,72.539574 
	C81.492126,69.666229 77.175278,67.179604 72.248795,64.281036 
M72.574188,88.113838 
	C83.263626,94.223709 93.913803,100.404129 104.672012,106.390404 
	C107.146194,107.767143 108.240608,109.311981 108.106346,112.219452 
	C107.866508,117.412926 108.038818,122.625435 108.038818,128.648804 
	C111.009750,126.971817 113.026772,125.874573 115.004387,124.710381 
	C129.001389,116.470581 129.080612,116.462654 128.372772,100.143539 
	C128.296524,98.385689 127.019676,95.968445 125.559448,95.095634 
	C114.707642,88.609383 103.689278,82.399475 92.657639,76.219841 
	C91.514069,75.579254 89.598282,75.057861 88.625221,75.576866 
	C82.366219,78.915245 76.270111,82.559036 69.856537,86.254631 
	C70.885460,87.015686 71.418091,87.409653 72.574188,88.113838 
M71.035210,59.709332 
	C82.269875,66.140373 93.483505,72.608833 104.767776,78.951614 
	C106.070793,79.684036 108.173256,80.493088 109.213745,79.947716 
	C115.451714,76.678040 121.487350,73.022362 128.367599,69.047249 
	C115.472229,61.682842 103.418526,54.784653 91.335098,47.938946 
	C90.697449,47.577694 89.577553,47.284466 89.070755,47.594593 
	C82.862434,51.393677 76.726776,55.311501 71.035210,59.709332 
M125.833969,40.683826 
	C122.519592,38.784885 119.247360,36.805515 115.866226,35.033985 
	C114.793732,34.472057 113.099289,33.847015 112.253799,34.301266 
	C105.917534,37.705471 99.722626,41.372791 92.895836,45.295399 
	C105.586937,52.544502 117.387207,59.323261 129.249832,65.991074 
	C130.250778,66.553688 131.969666,66.925087 132.846146,66.448845 
	C139.051712,63.077011 145.124374,59.460567 151.857819,55.564289 
	C142.883972,50.421944 134.684235,45.723198 125.833969,40.683826 
z"/>
<path fill="#00052C" opacity="1.000000" stroke="none" 
	d="
M157.784775,106.816330 
	C165.866257,102.098686 173.617706,97.541512 181.392242,93.024033 
	C186.574524,90.012810 189.934311,91.971558 189.829575,98.098541 
	C189.762985,101.993629 191.216705,106.168526 185.884598,108.687454 
	C178.715454,112.074219 178.916199,112.499146 172.182587,106.799797 
	C163.419922,111.912415 154.477951,117.002213 145.718185,122.388397 
	C144.510101,123.131226 143.367966,125.501617 143.623291,126.847649 
	C144.902435,133.591110 141.103470,137.191864 135.652420,138.422363 
	C132.631393,139.104324 128.978287,136.986206 124.157997,135.761185 
	C115.910309,140.670441 105.963844,146.403839 96.281654,152.553329 
	C94.810501,153.487717 93.703613,156.449417 93.911339,158.307602 
	C94.603348,164.498108 89.537735,165.394043 85.956398,166.893478 
	C84.004677,167.710617 80.610870,166.567413 78.601738,165.216385 
	C77.362663,164.383179 77.012161,161.460785 77.139511,159.534302 
	C77.357574,156.235535 76.302597,154.242477 73.266800,152.906113 
	C70.843872,151.839493 68.473503,150.497559 66.368340,148.898087 
	C62.232571,145.755783 58.472740,145.091599 53.872288,148.404602 
	C50.390907,150.911697 44.576561,147.323944 45.068398,142.952957 
	C45.656349,137.727783 43.517815,134.931137 39.058136,133.039902 
	C37.080105,132.201080 35.141090,131.110596 33.445641,129.797104 
	C29.481960,126.726387 25.860046,126.066498 21.379734,129.269363 
	C17.627708,131.951584 11.918622,128.440887 12.241377,123.743729 
	C12.483050,120.226570 10.091926,116.013298 14.399529,113.237823 
	C18.907442,110.333282 21.550909,114.470612 24.545473,116.149490 
	C42.699390,126.327263 60.749409,136.695602 78.681374,147.259598 
	C82.243752,149.358261 84.763100,149.598877 88.491104,147.375900 
	C111.372894,133.731750 134.451477,120.417656 157.784775,106.816330 
z"/>
<path fill="#FDFEFE" opacity="1.000000" stroke="none" 
	d="
M94.581596,136.558609 
	C87.512848,142.891144 81.203949,141.632278 74.077614,136.702393 
	C66.183662,131.241516 57.412357,127.063087 49.225922,121.998367 
	C47.656509,121.027412 46.456825,118.654716 46.057640,116.727562 
	C43.562710,104.682678 47.560879,96.520538 59.619740,91.741600 
	C64.700020,89.728287 68.161102,88.797478 73.005051,91.885826 
	C81.955040,97.592064 91.266113,102.767120 100.655396,107.731010 
	C104.165871,109.586937 105.514534,111.784286 104.960083,115.522667 
	C104.791199,116.661339 104.745796,117.882797 104.963760,119.004150 
	C106.664139,127.752052 103.350266,133.534973 94.581596,136.558609 
z"/>
<path fill="#00032A" opacity="1.000000" stroke="none" 
	d="
M175.500366,88.039871 
	C175.103867,88.988831 174.871490,89.741707 174.370575,90.033386 
	C160.451385,98.138443 146.504959,106.196701 131.578979,114.832008 
	C131.578979,108.683258 131.856400,103.419769 131.433212,98.213226 
	C131.278564,96.310524 129.898239,93.883926 128.320175,92.834564 
	C123.090935,89.357269 117.516922,86.398468 111.258041,82.766579 
	C114.810776,80.669701 117.699364,78.933350 120.617508,77.248154 
	C130.987076,71.259804 141.408661,65.359703 151.711838,59.259480 
	C154.159668,57.810181 156.229477,57.405460 158.528931,59.229420 
	C159.044235,59.638172 159.680786,59.891361 160.249863,60.235451 
	C165.218246,63.239574 172.249191,65.147888 174.594986,69.551239 
	C177.165100,74.375641 175.409729,81.504333 175.500366,88.039871 
z"/>
<path fill="#FAFEFD" opacity="1.000000" stroke="none" 
	d="
M72.553604,64.487015 
	C77.175278,67.179604 81.492126,69.666229 86.480354,72.539574 
	C84.580063,73.723892 83.156120,74.669426 81.678925,75.522758 
	C70.158600,82.177666 58.713741,88.971329 47.047886,95.361221 
	C43.593472,97.253342 42.385818,99.426735 42.648411,103.221069 
	C42.969193,107.856155 42.724773,112.530365 42.724773,118.363022 
	C35.744709,114.322784 29.360994,110.687920 23.073742,106.893242 
	C22.460394,106.523056 22.201303,105.171356 22.186827,104.268684 
	C22.104046,99.108170 21.987480,93.937561 22.252098,88.789383 
	C22.320473,87.459198 23.402267,85.663841 24.551647,84.985611 
	C37.584682,77.295090 50.777958,69.875710 63.795532,62.159698 
	C67.649010,59.875599 69.475327,63.460144 72.553604,64.487015 
z"/>
<path fill="#00032A" opacity="1.000000" stroke="none" 
	d="
M72.262451,87.958725 
	C71.418091,87.409653 70.885460,87.015686 69.856537,86.254631 
	C76.270111,82.559036 82.366219,78.915245 88.625221,75.576866 
	C89.598282,75.057861 91.514069,75.579254 92.657639,76.219841 
	C103.689278,82.399475 114.707642,88.609383 125.559448,95.095634 
	C127.019676,95.968445 128.296524,98.385689 128.372772,100.143539 
	C129.080612,116.462654 129.001389,116.470581 115.004387,124.710381 
	C113.026772,125.874573 111.009750,126.971817 108.038818,128.648804 
	C108.038818,122.625435 107.866508,117.412926 108.106346,112.219452 
	C108.240608,109.311981 107.146194,107.767143 104.672012,106.390404 
	C93.913803,100.404129 83.263626,94.223709 72.262451,87.958725 
z"/>
<path fill="#00032B" opacity="1.000000" stroke="none" 
	d="
M70.803757,59.453960 
	C76.726776,55.311501 82.862434,51.393677 89.070755,47.594593 
	C89.577553,47.284466 90.697449,47.577694 91.335098,47.938946 
	C103.418526,54.784653 115.472229,61.682842 128.367599,69.047249 
	C121.487350,73.022362 115.451714,76.678040 109.213745,79.947716 
	C108.173256,80.493088 106.070793,79.684036 104.767776,78.951614 
	C93.483505,72.608833 82.269875,66.140373 70.803757,59.453960 
z"/>
<path fill="#00032A" opacity="1.000000" stroke="none" 
	d="
M126.159241,40.854141 
	C134.684235,45.723198 142.883972,50.421944 151.857819,55.564289 
	C145.124374,59.460567 139.051712,63.077011 132.846146,66.448845 
	C131.969666,66.925087 130.250778,66.553688 129.249832,65.991074 
	C117.387207,59.323261 105.586937,52.544502 92.895836,45.295399 
	C99.722626,41.372791 105.917534,37.705471 112.253799,34.301266 
	C113.099289,33.847015 114.793732,34.472057 115.866226,35.033985 
	C119.247360,36.805515 122.519592,38.784885 126.159241,40.854141 
z"/>
</svg>